<svg xmlns="http://www.w3.org/2000/svg" width="430" height="440" viewBox="0 0 430 440">
<rect width="100%" height="100%" fill="white"/>
<g fill="black">
<rect x="40" y="50" width="10" height="10"/>
<rect x="50" y="50" width="10" height="10"/>
<rect x="60" y="50" width="10" height="10"/>
<rect x="70" y="50" width="10" height="10"/>
<rect x="80" y="50" width="10" height="10"/>
<rect x="90" y="50" width="10" height="10"/>
<rect x="100" y="50" width="10" height="10"/>
<rect x="110" y="50" width="10" height="10"/>
<rect x="120" y="50" width="10" height="10"/>
<rect x="130" y="50" width="10" height="10"/>
<rect x="140" y="50" width="10" height="10"/>
<rect x="150" y="50" width="10" height="10"/>
<rect x="160" y="50" width="10" height="10"/>
<rect x="170" y="50" width="10" height="10"/>
<rect x="180" y="50" width="10" height="10"/>
<rect x="190" y="50" width="10" height="10"/>
<rect x="200" y="50" width="10" height="10"/>
<rect x="210" y="50" width="10" height="10"/>
<rect x="220" y="50" width="10" height="10"/>
<rect x="230" y="50" width="10" height="10"/>
<rect x="240" y="50" width="10" height="10"/>
<rect x="250" y="50" width="10" height="10"/>
<rect x="260" y="50" width="10" height="10"/>
<rect x="270" y="50" width="10" height="10"/>
<rect x="280" y="50" width="10" height="10"/>
<rect x="290" y="50" width="10" height="10"/>
<rect x="300" y="50" width="10" height="10"/>
<rect x="310" y="50" width="10" height="10"/>
<rect x="320" y="50" width="10" height="10"/>
<rect x="330" y="50" width="10" height="10"/>
<rect x="340" y="50" width="10" height="10"/>
<rect x="350" y="50" width="10" height="10"/>
<rect x="360" y="50" width="10" height="10"/>
<rect x="370" y="50" width="10" height="10"/>
<rect x="380" y="50" width="10" height="10"/>
<rect x="40" y="70" width="10" height="10"/>
<rect x="60" y="70" width="10" height="10"/>
<rect x="70" y="70" width="10" height="10"/>
<rect x="80" y="70" width="10" height="10"/>
<rect x="90" y="70" width="10" height="10"/>
<rect x="100" y="70" width="10" height="10"/>
<rect x="120" y="70" width="10" height="10"/>
<rect x="140" y="70" width="10" height="10"/>
<rect x="150" y="70" width="10" height="10"/>
<rect x="160" y="70" width="10" height="10"/>
<rect x="170" y="70" width="10" height="10"/>
<rect x="180" y="70" width="10" height="10"/>
<rect x="200" y="70" width="10" height="10"/>
<rect x="220" y="70" width="10" height="10"/>
<rect x="230" y="70" width="10" height="10"/>
<rect x="250" y="70" width="10" height="10"/>
<rect x="260" y="70" width="10" height="10"/>
<rect x="270" y="70" width="10" height="10"/>
<rect x="280" y="70" width="10" height="10"/>
<rect x="290" y="70" width="10" height="10"/>
<rect x="300" y="70" width="10" height="10"/>
<rect x="320" y="70" width="10" height="10"/>
<rect x="330" y="70" width="10" height="10"/>
<rect x="340" y="70" width="10" height="10"/>
<rect x="350" y="70" width="10" height="10"/>
<rect x="360" y="70" width="10" height="10"/>
<rect x="380" y="70" width="10" height="10"/>
<rect x="40" y="90" width="10" height="10"/>
<rect x="60" y="90" width="10" height="10"/>
<rect x="100" y="90" width="10" height="10"/>
<rect x="120" y="90" width="10" height="10"/>
<rect x="160" y="90" width="10" height="10"/>
<rect x="170" y="90" width="10" height="10"/>
<rect x="180" y="90" width="10" height="10"/>
<rect x="200" y="90" width="10" height="10"/>
<rect x="210" y="90" width="10" height="10"/>
<rect x="230" y="90" width="10" height="10"/>
<rect x="240" y="90" width="10" height="10"/>
<rect x="260" y="90" width="10" height="10"/>
<rect x="270" y="90" width="10" height="10"/>
<rect x="280" y="90" width="10" height="10"/>
<rect x="300" y="90" width="10" height="10"/>
<rect x="320" y="90" width="10" height="10"/>
<rect x="360" y="90" width="10" height="10"/>
<rect x="380" y="90" width="10" height="10"/>
<rect x="40" y="110" width="10" height="10"/>
<rect x="60" y="110" width="10" height="10"/>
<rect x="70" y="110" width="10" height="10"/>
<rect x="80" y="110" width="10" height="10"/>
<rect x="90" y="110" width="10" height="10"/>
<rect x="100" y="110" width="10" height="10"/>
<rect x="120" y="110" width="10" height="10"/>
<rect x="130" y="110" width="10" height="10"/>
<rect x="150" y="110" width="10" height="10"/>
<rect x="160" y="110" width="10" height="10"/>
<rect x="170" y="110" width="10" height="10"/>
<rect x="180" y="110" width="10" height="10"/>
<rect x="190" y="110" width="10" height="10"/>
<rect x="200" y="110" width="10" height="10"/>
<rect x="210" y="110" width="10" height="10"/>
<rect x="220" y="110" width="10" height="10"/>
<rect x="230" y="110" width="10" height="10"/>
<rect x="240" y="110" width="10" height="10"/>
<rect x="260" y="110" width="10" height="10"/>
<rect x="270" y="110" width="10" height="10"/>
<rect x="280" y="110" width="10" height="10"/>
<rect x="300" y="110" width="10" height="10"/>
<rect x="320" y="110" width="10" height="10"/>
<rect x="330" y="110" width="10" height="10"/>
<rect x="340" y="110" width="10" height="10"/>
<rect x="350" y="110" width="10" height="10"/>
<rect x="360" y="110" width="10" height="10"/>
<rect x="380" y="110" width="10" height="10"/>
<rect x="40" y="130" width="10" height="10"/>
<rect x="50" y="130" width="10" height="10"/>
<rect x="60" y="130" width="10" height="10"/>
<rect x="70" y="130" width="10" height="10"/>
<rect x="80" y="130" width="10" height="10"/>
<rect x="90" y="130" width="10" height="10"/>
<rect x="100" y="130" width="10" height="10"/>
<rect x="110" y="130" width="10" height="10"/>
<rect x="120" y="130" width="10" height="10"/>
<rect x="130" y="130" width="10" height="10"/>
<rect x="140" y="130" width="10" height="10"/>
<rect x="160" y="130" width="10" height="10"/>
<rect x="180" y="130" width="10" height="10"/>
<rect x="200" y="130" width="10" height="10"/>
<rect x="220" y="130" width="10" height="10"/>
<rect x="240" y="130" width="10" height="10"/>
<rect x="260" y="130" width="10" height="10"/>
<rect x="270" y="130" width="10" height="10"/>
<rect x="280" y="130" width="10" height="10"/>
<rect x="290" y="130" width="10" height="10"/>
<rect x="300" y="130" width="10" height="10"/>
<rect x="310" y="130" width="10" height="10"/>
<rect x="320" y="130" width="10" height="10"/>
<rect x="330" y="130" width="10" height="10"/>
<rect x="340" y="130" width="10" height="10"/>
<rect x="350" y="130" width="10" height="10"/>
<rect x="360" y="130" width="10" height="10"/>
<rect x="370" y="130" width="10" height="10"/>
<rect x="380" y="130" width="10" height="10"/>
<rect x="40" y="150" width="10" height="10"/>
<rect x="60" y="150" width="10" height="10"/>
<rect x="70" y="150" width="10" height="10"/>
<rect x="80" y="150" width="10" height="10"/>
<rect x="90" y="150" width="10" height="10"/>
<rect x="100" y="150" width="10" height="10"/>
<rect x="110" y="150" width="10" height="10"/>
<rect x="120" y="150" width="10" height="10"/>
<rect x="130" y="150" width="10" height="10"/>
<rect x="140" y="150" width="10" height="10"/>
<rect x="150" y="150" width="10" height="10"/>
<rect x="160" y="150" width="10" height="10"/>
<rect x="170" y="150" width="10" height="10"/>
<rect x="180" y="150" width="10" height="10"/>
<rect x="190" y="150" width="10" height="10"/>
<rect x="200" y="150" width="10" height="10"/>
<rect x="220" y="150" width="10" height="10"/>
<rect x="230" y="150" width="10" height="10"/>
<rect x="240" y="150" width="10" height="10"/>
<rect x="250" y="150" width="10" height="10"/>
<rect x="260" y="150" width="10" height="10"/>
<rect x="270" y="150" width="10" height="10"/>
<rect x="280" y="150" width="10" height="10"/>
<rect x="290" y="150" width="10" height="10"/>
<rect x="300" y="150" width="10" height="10"/>
<rect x="310" y="150" width="10" height="10"/>
<rect x="320" y="150" width="10" height="10"/>
<rect x="330" y="150" width="10" height="10"/>
<rect x="340" y="150" width="10" height="10"/>
<rect x="360" y="150" width="10" height="10"/>
<rect x="370" y="150" width="10" height="10"/>
<rect x="380" y="150" width="10" height="10"/>
<rect x="40" y="170" width="10" height="10"/>
<rect x="50" y="170" width="10" height="10"/>
<rect x="60" y="170" width="10" height="10"/>
<rect x="70" y="170" width="10" height="10"/>
<rect x="100" y="170" width="10" height="10"/>
<rect x="110" y="170" width="10" height="10"/>
<rect x="120" y="170" width="10" height="10"/>
<rect x="150" y="170" width="10" height="10"/>
<rect x="160" y="170" width="10" height="10"/>
<rect x="170" y="170" width="10" height="10"/>
<rect x="180" y="170" width="10" height="10"/>
<rect x="190" y="170" width="10" height="10"/>
<rect x="210" y="170" width="10" height="10"/>
<rect x="220" y="170" width="10" height="10"/>
<rect x="230" y="170" width="10" height="10"/>
<rect x="240" y="170" width="10" height="10"/>
<rect x="250" y="170" width="10" height="10"/>
<rect x="270" y="170" width="10" height="10"/>
<rect x="290" y="170" width="10" height="10"/>
<rect x="320" y="170" width="10" height="10"/>
<rect x="340" y="170" width="10" height="10"/>
<rect x="350" y="170" width="10" height="10"/>
<rect x="360" y="170" width="10" height="10"/>
<rect x="370" y="170" width="10" height="10"/>
<rect x="380" y="170" width="10" height="10"/>
<rect x="40" y="190" width="10" height="10"/>
<rect x="50" y="190" width="10" height="10"/>
<rect x="60" y="190" width="10" height="10"/>
<rect x="70" y="190" width="10" height="10"/>
<rect x="80" y="190" width="10" height="10"/>
<rect x="100" y="190" width="10" height="10"/>
<rect x="110" y="190" width="10" height="10"/>
<rect x="120" y="190" width="10" height="10"/>
<rect x="140" y="190" width="10" height="10"/>
<rect x="150" y="190" width="10" height="10"/>
<rect x="160" y="190" width="10" height="10"/>
<rect x="170" y="190" width="10" height="10"/>
<rect x="180" y="190" width="10" height="10"/>
<rect x="190" y="190" width="10" height="10"/>
<rect x="200" y="190" width="10" height="10"/>
<rect x="210" y="190" width="10" height="10"/>
<rect x="220" y="190" width="10" height="10"/>
<rect x="230" y="190" width="10" height="10"/>
<rect x="240" y="190" width="10" height="10"/>
<rect x="250" y="190" width="10" height="10"/>
<rect x="260" y="190" width="10" height="10"/>
<rect x="270" y="190" width="10" height="10"/>
<rect x="280" y="190" width="10" height="10"/>
<rect x="290" y="190" width="10" height="10"/>
<rect x="300" y="190" width="10" height="10"/>
<rect x="310" y="190" width="10" height="10"/>
<rect x="320" y="190" width="10" height="10"/>
<rect x="330" y="190" width="10" height="10"/>
<rect x="340" y="190" width="10" height="10"/>
<rect x="350" y="190" width="10" height="10"/>
<rect x="360" y="190" width="10" height="10"/>
<rect x="370" y="190" width="10" height="10"/>
<rect x="380" y="190" width="10" height="10"/>
<rect x="40" y="210" width="10" height="10"/>
<rect x="50" y="210" width="10" height="10"/>
<rect x="60" y="210" width="10" height="10"/>
<rect x="70" y="210" width="10" height="10"/>
<rect x="90" y="210" width="10" height="10"/>
<rect x="100" y="210" width="10" height="10"/>
<rect x="110" y="210" width="10" height="10"/>
<rect x="120" y="210" width="10" height="10"/>
<rect x="130" y="210" width="10" height="10"/>
<rect x="150" y="210" width="10" height="10"/>
<rect x="170" y="210" width="10" height="10"/>
<rect x="180" y="210" width="10" height="10"/>
<rect x="200" y="210" width="10" height="10"/>
<rect x="210" y="210" width="10" height="10"/>
<rect x="240" y="210" width="10" height="10"/>
<rect x="260" y="210" width="10" height="10"/>
<rect x="270" y="210" width="10" height="10"/>
<rect x="290" y="210" width="10" height="10"/>
<rect x="300" y="210" width="10" height="10"/>
<rect x="310" y="210" width="10" height="10"/>
<rect x="320" y="210" width="10" height="10"/>
<rect x="330" y="210" width="10" height="10"/>
<rect x="350" y="210" width="10" height="10"/>
<rect x="360" y="210" width="10" height="10"/>
<rect x="370" y="210" width="10" height="10"/>
<rect x="380" y="210" width="10" height="10"/>
<rect x="40" y="230" width="10" height="10"/>
<rect x="60" y="230" width="10" height="10"/>
<rect x="70" y="230" width="10" height="10"/>
<rect x="90" y="230" width="10" height="10"/>
<rect x="100" y="230" width="10" height="10"/>
<rect x="110" y="230" width="10" height="10"/>
<rect x="120" y="230" width="10" height="10"/>
<rect x="130" y="230" width="10" height="10"/>
<rect x="140" y="230" width="10" height="10"/>
<rect x="150" y="230" width="10" height="10"/>
<rect x="170" y="230" width="10" height="10"/>
<rect x="180" y="230" width="10" height="10"/>
<rect x="190" y="230" width="10" height="10"/>
<rect x="200" y="230" width="10" height="10"/>
<rect x="220" y="230" width="10" height="10"/>
<rect x="230" y="230" width="10" height="10"/>
<rect x="240" y="230" width="10" height="10"/>
<rect x="250" y="230" width="10" height="10"/>
<rect x="260" y="230" width="10" height="10"/>
<rect x="270" y="230" width="10" height="10"/>
<rect x="280" y="230" width="10" height="10"/>
<rect x="290" y="230" width="10" height="10"/>
<rect x="310" y="230" width="10" height="10"/>
<rect x="320" y="230" width="10" height="10"/>
<rect x="330" y="230" width="10" height="10"/>
<rect x="340" y="230" width="10" height="10"/>
<rect x="350" y="230" width="10" height="10"/>
<rect x="360" y="230" width="10" height="10"/>
<rect x="370" y="230" width="10" height="10"/>
<rect x="380" y="230" width="10" height="10"/>
<rect x="40" y="250" width="10" height="10"/>
<rect x="50" y="250" width="10" height="10"/>
<rect x="60" y="250" width="10" height="10"/>
<rect x="70" y="250" width="10" height="10"/>
<rect x="80" y="250" width="10" height="10"/>
<rect x="90" y="250" width="10" height="10"/>
<rect x="100" y="250" width="10" height="10"/>
<rect x="110" y="250" width="10" height="10"/>
<rect x="120" y="250" width="10" height="10"/>
<rect x="170" y="250" width="10" height="10"/>
<rect x="180" y="250" width="10" height="10"/>
<rect x="190" y="250" width="10" height="10"/>
<rect x="200" y="250" width="10" height="10"/>
<rect x="210" y="250" width="10" height="10"/>
<rect x="230" y="250" width="10" height="10"/>
<rect x="240" y="250" width="10" height="10"/>
<rect x="260" y="250" width="10" height="10"/>
<rect x="270" y="250" width="10" height="10"/>
<rect x="280" y="250" width="10" height="10"/>
<rect x="320" y="250" width="10" height="10"/>
<rect x="330" y="250" width="10" height="10"/>
<rect x="340" y="250" width="10" height="10"/>
<rect x="350" y="250" width="10" height="10"/>
<rect x="360" y="250" width="10" height="10"/>
<rect x="370" y="250" width="10" height="10"/>
<rect x="380" y="250" width="10" height="10"/>
<rect x="40" y="270" width="10" height="10"/>
<rect x="60" y="270" width="10" height="10"/>
<rect x="70" y="270" width="10" height="10"/>
<rect x="80" y="270" width="10" height="10"/>
<rect x="90" y="270" width="10" height="10"/>
<rect x="110" y="270" width="10" height="10"/>
<rect x="120" y="270" width="10" height="10"/>
<rect x="140" y="270" width="10" height="10"/>
<rect x="150" y="270" width="10" height="10"/>
<rect x="160" y="270" width="10" height="10"/>
<rect x="170" y="270" width="10" height="10"/>
<rect x="180" y="270" width="10" height="10"/>
<rect x="190" y="270" width="10" height="10"/>
<rect x="200" y="270" width="10" height="10"/>
<rect x="210" y="270" width="10" height="10"/>
<rect x="220" y="270" width="10" height="10"/>
<rect x="230" y="270" width="10" height="10"/>
<rect x="240" y="270" width="10" height="10"/>
<rect x="250" y="270" width="10" height="10"/>
<rect x="260" y="270" width="10" height="10"/>
<rect x="270" y="270" width="10" height="10"/>
<rect x="280" y="270" width="10" height="10"/>
<rect x="290" y="270" width="10" height="10"/>
<rect x="300" y="270" width="10" height="10"/>
<rect x="310" y="270" width="10" height="10"/>
<rect x="320" y="270" width="10" height="10"/>
<rect x="330" y="270" width="10" height="10"/>
<rect x="340" y="270" width="10" height="10"/>
<rect x="350" y="270" width="10" height="10"/>
<rect x="360" y="270" width="10" height="10"/>
<rect x="370" y="270" width="10" height="10"/>
<rect x="380" y="270" width="10" height="10"/>
<rect x="40" y="290" width="10" height="10"/>
<rect x="50" y="290" width="10" height="10"/>
<rect x="60" y="290" width="10" height="10"/>
<rect x="70" y="290" width="10" height="10"/>
<rect x="80" y="290" width="10" height="10"/>
<rect x="90" y="290" width="10" height="10"/>
<rect x="100" y="290" width="10" height="10"/>
<rect x="110" y="290" width="10" height="10"/>
<rect x="130" y="290" width="10" height="10"/>
<rect x="140" y="290" width="10" height="10"/>
<rect x="150" y="290" width="10" height="10"/>
<rect x="170" y="290" width="10" height="10"/>
<rect x="180" y="290" width="10" height="10"/>
<rect x="190" y="290" width="10" height="10"/>
<rect x="210" y="290" width="10" height="10"/>
<rect x="220" y="290" width="10" height="10"/>
<rect x="240" y="290" width="10" height="10"/>
<rect x="260" y="290" width="10" height="10"/>
<rect x="270" y="290" width="10" height="10"/>
<rect x="290" y="290" width="10" height="10"/>
<rect x="300" y="290" width="10" height="10"/>
<rect x="310" y="290" width="10" height="10"/>
<rect x="320" y="290" width="10" height="10"/>
<rect x="330" y="290" width="10" height="10"/>
<rect x="340" y="290" width="10" height="10"/>
<rect x="350" y="290" width="10" height="10"/>
<rect x="360" y="290" width="10" height="10"/>
<rect x="370" y="290" width="10" height="10"/>
<rect x="380" y="290" width="10" height="10"/>
<rect x="40" y="310" width="10" height="10"/>
<rect x="50" y="310" width="10" height="10"/>
<rect x="60" y="310" width="10" height="10"/>
<rect x="70" y="310" width="10" height="10"/>
<rect x="80" y="310" width="10" height="10"/>
<rect x="90" y="310" width="10" height="10"/>
<rect x="100" y="310" width="10" height="10"/>
<rect x="110" y="310" width="10" height="10"/>
<rect x="120" y="310" width="10" height="10"/>
<rect x="140" y="310" width="10" height="10"/>
<rect x="150" y="310" width="10" height="10"/>
<rect x="170" y="310" width="10" height="10"/>
<rect x="180" y="310" width="10" height="10"/>
<rect x="190" y="310" width="10" height="10"/>
<rect x="200" y="310" width="10" height="10"/>
<rect x="220" y="310" width="10" height="10"/>
<rect x="230" y="310" width="10" height="10"/>
<rect x="240" y="310" width="10" height="10"/>
<rect x="270" y="310" width="10" height="10"/>
<rect x="300" y="310" width="10" height="10"/>
<rect x="310" y="310" width="10" height="10"/>
<rect x="320" y="310" width="10" height="10"/>
<rect x="340" y="310" width="10" height="10"/>
<rect x="350" y="310" width="10" height="10"/>
<rect x="370" y="310" width="10" height="10"/>
<rect x="380" y="310" width="10" height="10"/>
<rect x="40" y="330" width="10" height="10"/>
<rect x="60" y="330" width="10" height="10"/>
<rect x="70" y="330" width="10" height="10"/>
<rect x="80" y="330" width="10" height="10"/>
<rect x="90" y="330" width="10" height="10"/>
<rect x="100" y="330" width="10" height="10"/>
<rect x="120" y="330" width="10" height="10"/>
<rect x="130" y="330" width="10" height="10"/>
<rect x="140" y="330" width="10" height="10"/>
<rect x="150" y="330" width="10" height="10"/>
<rect x="170" y="330" width="10" height="10"/>
<rect x="180" y="330" width="10" height="10"/>
<rect x="200" y="330" width="10" height="10"/>
<rect x="210" y="330" width="10" height="10"/>
<rect x="230" y="330" width="10" height="10"/>
<rect x="240" y="330" width="10" height="10"/>
<rect x="250" y="330" width="10" height="10"/>
<rect x="280" y="330" width="10" height="10"/>
<rect x="300" y="330" width="10" height="10"/>
<rect x="310" y="330" width="10" height="10"/>
<rect x="320" y="330" width="10" height="10"/>
<rect x="340" y="330" width="10" height="10"/>
<rect x="350" y="330" width="10" height="10"/>
<rect x="360" y="330" width="10" height="10"/>
<rect x="370" y="330" width="10" height="10"/>
<rect x="380" y="330" width="10" height="10"/>
<rect x="40" y="350" width="10" height="10"/>
<rect x="60" y="350" width="10" height="10"/>
<rect x="100" y="350" width="10" height="10"/>
<rect x="120" y="350" width="10" height="10"/>
<rect x="130" y="350" width="10" height="10"/>
<rect x="140" y="350" width="10" height="10"/>
<rect x="150" y="350" width="10" height="10"/>
<rect x="170" y="350" width="10" height="10"/>
<rect x="180" y="350" width="10" height="10"/>
<rect x="190" y="350" width="10" height="10"/>
<rect x="200" y="350" width="10" height="10"/>
<rect x="210" y="350" width="10" height="10"/>
<rect x="220" y="350" width="10" height="10"/>
<rect x="230" y="350" width="10" height="10"/>
<rect x="240" y="350" width="10" height="10"/>
<rect x="250" y="350" width="10" height="10"/>
<rect x="260" y="350" width="10" height="10"/>
<rect x="270" y="350" width="10" height="10"/>
<rect x="280" y="350" width="10" height="10"/>
<rect x="320" y="350" width="10" height="10"/>
<rect x="340" y="350" width="10" height="10"/>
<rect x="350" y="350" width="10" height="10"/>
<rect x="360" y="350" width="10" height="10"/>
<rect x="370" y="350" width="10" height="10"/>
<rect x="380" y="350" width="10" height="10"/>
<rect x="40" y="370" width="10" height="10"/>
<rect x="60" y="370" width="10" height="10"/>
<rect x="70" y="370" width="10" height="10"/>
<rect x="80" y="370" width="10" height="10"/>
<rect x="90" y="370" width="10" height="10"/>
<rect x="100" y="370" width="10" height="10"/>
<rect x="120" y="370" width="10" height="10"/>
<rect x="130" y="370" width="10" height="10"/>
<rect x="150" y="370" width="10" height="10"/>
<rect x="180" y="370" width="10" height="10"/>
<rect x="190" y="370" width="10" height="10"/>
<rect x="210" y="370" width="10" height="10"/>
<rect x="240" y="370" width="10" height="10"/>
<rect x="250" y="370" width="10" height="10"/>
<rect x="260" y="370" width="10" height="10"/>
<rect x="270" y="370" width="10" height="10"/>
<rect x="280" y="370" width="10" height="10"/>
<rect x="300" y="370" width="10" height="10"/>
<rect x="310" y="370" width="10" height="10"/>
<rect x="320" y="370" width="10" height="10"/>
<rect x="340" y="370" width="10" height="10"/>
<rect x="350" y="370" width="10" height="10"/>
<rect x="360" y="370" width="10" height="10"/>
<rect x="370" y="370" width="10" height="10"/>
<rect x="380" y="370" width="10" height="10"/>
<rect x="40" y="390" width="10" height="10"/>
<rect x="50" y="390" width="10" height="10"/>
<rect x="60" y="390" width="10" height="10"/>
<rect x="70" y="390" width="10" height="10"/>
<rect x="80" y="390" width="10" height="10"/>
<rect x="90" y="390" width="10" height="10"/>
<rect x="100" y="390" width="10" height="10"/>
<rect x="110" y="390" width="10" height="10"/>
<rect x="120" y="390" width="10" height="10"/>
<rect x="130" y="390" width="10" height="10"/>
<rect x="140" y="390" width="10" height="10"/>
<rect x="150" y="390" width="10" height="10"/>
<rect x="160" y="390" width="10" height="10"/>
<rect x="170" y="390" width="10" height="10"/>
<rect x="180" y="390" width="10" height="10"/>
<rect x="190" y="390" width="10" height="10"/>
<rect x="200" y="390" width="10" height="10"/>
<rect x="210" y="390" width="10" height="10"/>
<rect x="220" y="390" width="10" height="10"/>
<rect x="230" y="390" width="10" height="10"/>
<rect x="240" y="390" width="10" height="10"/>
<rect x="250" y="390" width="10" height="10"/>
<rect x="260" y="390" width="10" height="10"/>
<rect x="270" y="390" width="10" height="10"/>
<rect x="280" y="390" width="10" height="10"/>
<rect x="290" y="390" width="10" height="10"/>
<rect x="300" y="390" width="10" height="10"/>
<rect x="310" y="390" width="10" height="10"/>
<rect x="320" y="390" width="10" height="10"/>
<rect x="330" y="390" width="10" height="10"/>
<rect x="340" y="390" width="10" height="10"/>
<rect x="350" y="390" width="10" height="10"/>
<rect x="360" y="390" width="10" height="10"/>
<rect x="370" y="390" width="10" height="10"/>
<rect x="380" y="390" width="10" height="10"/>
</g>
</svg>
